# File created by Blade
# Date/Time:  Mon Nov 18 18:33:23 2013
# Frame Rate: 100.000 fps
#------------------------------------------------------
:FULLY-SPECIFIED
:DEGREES
254
root 52.932783 -4.123256 52.091566 -3.649471 0.017637 -125.635943
Spine 12.855747 -0.595392 -0.570274
Spine1 3.471862 1.604211 -1.467507
Spine2 0.945091 -1.165989 -1.480112
NeckDummy -0.000012 -0.155098 -0.026535 -1.342533 1.218573 -0.440376
Neck 15.085622 0.529226 27.461849
Head -0.307318 0.348891 0.194586 -34.199351 -4.191382 -0.689630
LeftShoulderDummy -0.058962 -0.144726 0.025267 -1.320753 1.097495 -0.227772
LeftShoulder 7.316178 -3.538688 14.111143
LeftArm 21.747778 51.006432 30.310914
LeftForeArm 89.780107
LeftForeArmRoll -36.684979
LeftHand -9.381846 5.440318 -4.594355
LeftHandThumb1 17.159929 13.088525
LeftHandIndex1 14.317647 43.740399
LeftHandPinky1 13.689760 48.169162
RightShoulderDummy -0.036441 -0.132196 0.051448 -1.361794 -1.218055 0.433921
RightShoulder 5.515339 4.845938 17.200862
RightArm -39.970735 70.214218 -2.714650
RightForeArm 112.323513
RightForeArmRoll 3.633331
RightHand -17.798403 -15.862788 11.562117
RightHandThumb1 -0.547201 13.528292
RightHandIndex1 13.796296 61.089983
RightHandPinky1 18.671100 69.433627
LeftUpLeg 3.669834 22.690219 -36.484659
LeftLeg 62.260924
LeftFoot 0.639245 -1.035788 -0.945751 -12.615249 9.989166 -15.800102
LeftToeBase -1.222007
RightUpLeg 10.806466 12.138830 -26.705005
RightLeg 68.521057
RightFoot -0.537958 0.442050 0.259415 -0.356094 7.355631 -35.105778
RightToeBase -1.134374
255
root 52.932115 -4.114912 52.087284 -3.618393 0.010186 -125.651097
Spine 12.849577 -0.596965 -0.565818
Spine1 3.457134 1.601761 -1.456180
Spine2 0.936682 -1.183284 -1.488586
NeckDummy 0.000122 -0.152946 -0.026378 -1.354542 1.226336 -0.447781
Neck 15.081523 0.556407 27.514692
Head -0.308993 0.346562 0.192984 -34.147186 -4.200773 -0.700562
LeftShoulderDummy -0.059852 -0.142881 0.025696 -1.332839 1.104669 -0.232536
LeftShoulder 7.340874 -3.530818 14.149962
LeftArm 21.707716 50.958936 30.327841
LeftForeArm 89.787590
LeftForeArmRoll -36.653947
LeftHand -9.417044 5.338966 -4.621083
LeftHandThumb1 16.882719 13.485673
LeftHandIndex1 14.367635 43.670428
LeftHandPinky1 13.695211 48.271384
RightShoulderDummy -0.036733 -0.129822 0.052069 -1.374326 -1.225107 0.440546
RightShoulder 5.534119 4.826702 17.203130
RightArm -39.915927 70.177131 -2.618938
RightForeArm 112.347756
RightForeArmRoll 3.520548
RightHand -17.795175 -16.026599 11.338755
RightHandThumb1 -0.821796 13.774855
RightHandIndex1 14.073070 60.986145
RightHandPinky1 19.079810 69.541740
LeftUpLeg 3.710904 22.709613 -36.478526
LeftLeg 62.191564
LeftFoot 0.658854 -1.032900 -0.952494 -12.838829 10.050833 -15.820479
LeftToeBase -0.898992
RightUpLeg 10.775767 12.091601 -26.717650
RightLeg 68.497295
RightFoot -0.537565 0.443791 0.253418 -0.326838 7.375811 -35.113162
RightToeBase -1.121973
256
root 52.927708 -4.105569 52.084708 -3.597596 0.000640 -125.605877
Spine 12.829049 -0.597391 -0.567159
Spine1 3.456425 1.612105 -1.463521
Spine2 0.928323 -1.148080 -1.602354
NeckDummy 0.000505 -0.151548 -0.026268 -1.358645 1.306907 -0.447605
Neck 15.124927 0.523124 27.508263
Head -0.307340 0.346243 0.192426 -34.136136 -4.185661 -0.669051
LeftShoulderDummy -0.058378 -0.141213 0.024723 -1.336267 1.185462 -0.235744
LeftShoulder 7.308931 -3.560617 14.104804
LeftArm 21.599273 50.984361 30.174669
LeftForeArm 89.817167
LeftForeArmRoll -36.650735
LeftHand -9.517417 5.473707 -4.564459
LeftHandThumb1 16.925914 12.950611
LeftHandIndex1 14.376098 43.473185
LeftHandPinky1 13.754282 48.064847
RightShoulderDummy -0.036083 -0.128456 0.054102 -1.378026 -1.306447 0.441437
RightShoulder 5.520355 4.869895 17.171891
RightArm -39.946744 70.132098 -2.678575
RightForeArm 112.359616
RightForeArmRoll 3.635992
RightHand -18.011873 -15.627284 11.315027
RightHandThumb1 -1.198085 13.541899
RightHandIndex1 14.500011 59.376633
RightHandPinky1 19.176289 69.041727
LeftUpLeg 3.643295 22.666918 -36.485353
LeftLeg 62.165292
LeftFoot 0.641913 -1.042805 -0.968076 -12.461156 9.843910 -15.737031
LeftToeBase -1.216742
RightUpLeg 10.787355 12.092466 -26.698192
RightLeg 68.458446
RightFoot -0.532056 0.449429 0.258033 -0.338209 7.360389 -35.082405
RightToeBase -1.040824
257
root 52.922354 -4.097978 52.088923 -3.525960 0.043040 -125.581837
Spine 12.787372 -0.635448 -0.549888
Spine1 3.437267 1.582529 -1.435462
Spine2 0.900259 -1.083405 -1.713136
NeckDummy 0.001091 -0.150297 -0.025461 -1.343098 1.384249 -0.448179
Neck 15.128441 0.500738 27.490451
Head -0.307664 0.345929 0.190813 -34.088984 -4.185895 -0.688338
LeftShoulderDummy -0.058182 -0.140240 0.023238 -1.320792 1.263033 -0.235165
LeftShoulder 7.327161 -3.589364 14.117876
LeftArm 21.595438 50.964586 30.220999
LeftForeArm 89.829216
LeftForeArmRoll -36.634698
LeftHand -9.504268 5.620638 -4.559591
LeftHandThumb1 16.842447 12.761922
LeftHandIndex1 14.358690 43.192969
LeftHandPinky1 13.647547 47.817535
RightShoulderDummy -0.035596 -0.127245 0.055715 -1.362641 -1.383039 0.441175
RightShoulder 5.515613 4.899060 17.204313
RightArm -39.849408 70.070797 -2.591872
RightForeArm 112.380611
RightForeArmRoll 3.706727
RightHand -17.875469 -15.795954 11.552328
RightHandThumb1 -0.705074 13.424035
RightHandIndex1 13.983143 60.591819
RightHandPinky1 18.805266 69.293444
LeftUpLeg 3.634306 22.585375 -36.534890
LeftLeg 62.138210
LeftFoot 0.658590 -1.031391 -0.945305 -12.981455 10.132360 -15.798042
LeftToeBase -0.699900
RightUpLeg 10.813828 12.181047 -26.768904
RightLeg 68.423604
RightFoot -0.538412 0.449948 0.265930 -0.526129 7.353546 -35.031144
RightToeBase -0.938386
258
root 52.920412 -4.086386 52.082051 -3.514096 0.014905 -125.593070
Spine 12.774088 -0.614314 -0.563351
Spine1 3.430829 1.586792 -1.451940
Spine2 0.920556 -1.115313 -1.674117
NeckDummy 0.001324 -0.150048 -0.026172 -1.357382 1.359692 -0.458068
Neck 15.134870 0.539259 27.544097
Head -0.306513 0.344395 0.193518 -34.136019 -4.180945 -0.699815
LeftShoulderDummy -0.057776 -0.139788 0.023785 -1.334651 1.238649 -0.246643
LeftShoulder 7.306931 -3.546912 14.114624
LeftArm 21.571624 50.969141 30.160943
LeftForeArm 89.851988
LeftForeArmRoll -36.613528
LeftHand -9.522663 5.553379 -4.555488
LeftHandThumb1 16.831878 12.791360
LeftHandIndex1 14.338151 43.373960
LeftHandPinky1 13.714415 47.954860
RightShoulderDummy -0.035734 -0.126637 0.055120 -1.376950 -1.358683 0.450706
RightShoulder 5.479929 4.848720 17.155487
RightArm -39.901219 70.001186 -2.652204
RightForeArm 112.365206
RightForeArmRoll 3.594993
RightHand -17.825343 -15.776162 11.544818
RightHandThumb1 -0.803524 13.381319
RightHandIndex1 14.087964 60.678319
RightHandPinky1 18.921316 69.198763
LeftUpLeg 3.618866 22.610914 -36.521164
LeftLeg 62.097887
LeftFoot 0.642340 -1.037093 -0.944301 -12.651537 10.042416 -15.657220
LeftToeBase -1.153123
RightUpLeg 10.820868 12.140461 -26.743592
RightLeg 68.357536
RightFoot -0.534673 0.448768 0.267528 -0.544288 7.359102 -34.943207
RightToeBase -0.934966
259
root 52.915280 -4.076483 52.081628 -3.487366 0.020426 -125.594347
Spine 12.771423 -0.637224 -0.533297
Spine1 3.423595 1.577655 -1.397508
Spine2 0.893604 -1.059041 -1.638470
NeckDummy 0.000810 -0.149067 -0.025382 -1.366903 1.327722 -0.437243
Neck 15.177637 0.522961 27.481394
Head -0.306594 0.343256 0.192389 -34.123578 -4.149423 -0.695671
LeftShoulderDummy -0.057696 -0.138428 0.025570 -1.344269 1.206440 -0.224679
LeftShoulder 7.322376 -3.565784 14.042434
LeftArm 21.577722 50.997274 30.169638
LeftForeArm 89.878606
LeftForeArmRoll -36.591232
LeftHand -9.457030 5.328503 -4.595972
LeftHandThumb1 17.073232 13.004924
LeftHandIndex1 14.407516 43.694729
LeftHandPinky1 13.630858 48.307713
RightShoulderDummy -0.035648 -0.125998 0.055360 -1.387183 -1.325575 0.429150
RightShoulder 5.412954 4.924781 17.201826
RightArm -40.040692 69.953655 -2.803379
RightForeArm 112.374335
RightForeArmRoll 3.708863
RightHand -17.792818 -15.865546 11.651525
RightHandThumb1 -0.495272 13.416681
RightHandIndex1 13.857478 60.886319
RightHandPinky1 18.725728 69.377228
LeftUpLeg 3.631745 22.600330 -36.527518
LeftLeg 62.065922
LeftFoot 0.640825 -1.039601 -0.945800 -12.631665 10.042804 -15.611903
LeftToeBase -1.154574
RightUpLeg 10.769786 12.113026 -26.747654
RightLeg 68.316855
RightFoot -0.533149 0.444612 0.263931 -0.578266 7.425905 -34.872433
RightToeBase -1.016096
260
root 52.908801 -4.065889 52.083757 -3.444492 0.034547 -125.571366
Spine 12.729553 -0.642381 -0.533087
Spine1 3.410683 1.573454 -1.400179
Spine2 0.908410 -1.042004 -1.711403
NeckDummy 0.001233 -0.147550 -0.026022 -1.367223 1.379640 -0.443138
Neck 15.200857 0.523504 27.482510
Head -0.306354 0.343665 0.192257 -34.106445 -4.143517 -0.695683
LeftShoulderDummy -0.056467 -0.136687 0.024208 -1.343754 1.258619 -0.234348
LeftShoulder 7.388204 -3.588364 14.045781
LeftArm 21.670312 50.925318 30.244324
LeftForeArm 89.894434
LeftForeArmRoll -36.550838
LeftHand -9.428913 5.394652 -4.693348
LeftHandThumb1 17.074669 13.034308
LeftHandIndex1 14.375821 43.694299
LeftHandPinky1 13.710429 48.212139
RightShoulderDummy -0.034873 -0.124443 0.056203 -1.386366 -1.379386 0.436936
RightShoulder 5.502434 4.948071 17.154816
RightArm -39.670306 69.947664 -2.497854
RightForeArm 112.349975
RightForeArmRoll 3.582681
RightHand -17.742279 -15.913285 11.655865
RightHandThumb1 -0.566448 13.432330
RightHandIndex1 13.889625 60.919796
RightHandPinky1 18.646479 69.366151
LeftUpLeg 3.590697 22.528822 -36.543297
LeftLeg 62.030611
LeftFoot 0.640162 -1.038477 -0.941706 -12.638518 10.099112 -15.562503
LeftToeBase -1.176224
RightUpLeg 10.814514 12.171671 -26.760735
RightLeg 68.275412
RightFoot -0.532102 0.446392 0.263637 -0.596838 7.384181 -34.811359
RightToeBase -1.031717
